<svg xmlns="http://www.w3.org/2000/svg" viewBox="0 0 609.563 609.563" width="512" height="512"><path d="M304.17 204.813c16.66 0 30.783 5.79 42.363 17.373 11.582 11.582 17.373 25.703 17.373 42.365 0 16.662-5.79 30.784-17.373 42.366-11.58 11.58-25.703 17.372-42.362 17.372-16.66 0-30.782-5.79-42.363-17.372-11.582-11.582-17.373-25.704-17.373-42.365 0-16.66 5.79-30.782 17.373-42.364 11.582-11.582 25.703-17.373 42.364-17.373zm148.734 60.957c0-20.32-3.857-39.418-11.582-57.3-7.72-17.88-18.287-33.525-31.695-46.936-13.41-13.41-29.057-24.078-46.938-32.002s-36.98-11.886-57.3-11.886h-1.217c-20.318 0-39.418 3.962-57.3 11.886-17.88 7.924-33.525 18.592-46.935 32.002-13.41 13.41-23.976 29.056-31.697 46.937-7.72 17.88-11.58 36.98-11.58 57.3v4.266c0 .813.202 1.422.608 1.83 0 8.126 1.016 16.864 3.048 26.21.813 5.69 3.657 13.816 8.534 24.383 4.877 10.564 10.77 22.145 17.678 34.743 6.908 12.598 14.325 25.703 22.25 39.317 7.923 13.61 15.542 26.21 22.857 37.793 7.314 11.58 13.817 21.537 19.506 29.868 5.69 8.332 9.754 13.716 12.192 16.152 3.25 3.25 7.01 6.705 11.277 10.362s8.43 6.908 12.495 9.753c4.063 2.845 7.72 5.08 10.972 6.706 3.25 1.625 5.486 2.438 6.705 2.438 1.222 0 3.355-.81 6.4-2.437 3.05-1.626 6.604-3.76 10.668-6.4 4.063-2.642 8.23-5.79 12.496-9.446 4.268-3.658 8.23-7.315 11.887-10.975 2.438-2.438 6.502-7.82 12.19-16.152 5.69-8.33 12.19-18.39 19.507-30.174 7.313-11.783 14.934-24.383 22.855-37.793 7.928-13.41 15.344-26.517 22.25-39.315 6.908-12.803 12.7-24.382 17.373-34.745 4.672-10.362 7.62-18.388 8.838-24.077.813-4.47 1.424-8.84 1.828-13.105.406-4.266.813-8.635 1.223-13.105v-1.83c0-.81.102-1.42.305-1.828s.305-1.016.305-1.83v-.607h-.003zM304.78 0c41.86 0 81.378 8.026 118.564 24.078C460.526 40.13 492.83 61.87 520.264 89.3c27.43 27.43 49.17 59.738 65.223 96.92 16.05 37.185 24.076 76.705 24.076 118.56 0 28.04-3.658 55.064-10.973 81.072s-17.576 50.29-30.783 72.843-29.055 43.076-47.545 61.566c-18.49 18.488-39.014 34.34-61.566 47.547-22.553 13.207-46.834 23.468-72.842 30.78-26.008 7.314-53.033 10.975-81.073 10.975s-55.062-3.658-81.07-10.975c-26.008-7.313-50.29-17.573-72.843-30.78-22.554-13.208-43.076-29.06-61.565-47.546-18.49-18.49-34.34-39.014-47.546-61.565-13.208-22.554-23.47-46.834-30.784-72.843C3.658 359.844 0 332.822 0 304.782s3.657-55.064 10.972-81.073c7.315-26.01 17.576-50.29 30.783-72.843C54.962 128.313 70.81 107.79 89.3 89.3s39.013-34.338 61.566-47.545S197.7 18.287 223.71 10.972 276.74 0 304.78 0z" fill="#25aae1"/></svg>