<svg xmlns="http://www.w3.org/2000/svg" viewBox="0 0 300 300" width="512" height="512"><g fill="#25aae1"><path d="M202.105 96.266c-5.574-5.405-11.98-9.957-19.01-13.437 3.394 5.158 6.382 11.128 8.866 17.786 3.568-1.28 6.958-2.734 10.145-4.35zM112.603 144.813h32.207v-27.29c-9.625-.418-18.93-1.774-27.6-3.99-2.597 9.483-4.223 20.1-4.607 31.28zM116.58 183.953c8.86-2.324 18.393-3.758 28.23-4.194v-24.573h-32.205c.36 10.203 1.754 19.934 3.974 28.766zM120.412 103.666c7.648 1.904 15.87 3.08 24.398 3.47V75.3c-1.502.104-2.988.252-4.464.444-7.972 4.834-14.954 14.81-19.934 27.922zM96.922 202.79c6.686 6.72 14.636 12.174 23.456 15.99-4.272-6.096-7.94-13.457-10.84-21.8-4.53 1.67-8.756 3.613-12.616 5.81zM120.288 81.26c-8.02 3.48-15.307 8.325-21.586 14.24 3.613 1.936 7.52 3.638 11.656 5.124 2.74-7.348 6.094-13.863 9.93-19.364zM107.195 110.48c-5.638-2.003-10.906-4.397-15.707-7.16-9.23 11.548-15.113 25.867-16.19 41.493h26.915c.38-12.36 2.13-23.952 4.982-34.334zM102.216 155.187H75.3c1.017 14.79 6.328 28.423 14.72 39.627 4.996-3 10.552-5.61 16.543-7.773-2.47-9.735-3.99-20.467-4.347-31.853zM140.536 224.283c1.413.176 2.837.32 4.274.418v-34.553c-8.83.415-17.36 1.68-25.262 3.72 5.056 14.382 12.46 25.34 20.988 30.416zM195.766 187c5.335 1.932 10.338 4.212 14.913 6.837 7.98-11.018 13.032-24.28 14.02-38.647h-24.595c-.357 11.367-1.872 22.087-4.34 31.81zM183.01 217.213c7.82-3.857 14.865-9.04 20.86-15.25-3.44-1.85-7.157-3.507-11.096-4.954-2.66 7.626-5.953 14.435-9.763 20.203z"/><path d="M149.997 0C67.157 0 .003 67.16.003 149.997S67.158 300 149.997 300s150-67.163 150-150.003S232.837 0 149.997 0zM150 240.462c-49.88 0-90.462-40.58-90.462-90.462S100.12 59.538 150 59.538s90.462 40.58 90.462 90.462S199.88 240.462 150 240.462z"/><path d="M162.72 76.202c-2.475-.425-4.988-.726-7.535-.903v31.936c9.334-.275 18.352-1.512 26.71-3.597-4.82-12.688-11.52-22.445-19.176-27.438zM195.12 110.47c2.857 10.383 4.605 21.982 4.986 34.343h24.592c-1.045-15.227-6.658-29.21-15.484-40.595-4.36 2.378-9.075 4.474-14.093 6.253zM155.185 224.7c2.49-.17 4.95-.464 7.368-.87 8.2-5.263 15.307-16.003 20.212-29.95-8.613-2.222-17.955-3.542-27.58-3.832V224.7zM185.102 113.508c-9.384 2.402-19.493 3.813-29.917 4.103v27.203h34.534c-.388-11.186-2.017-21.815-4.618-31.305zM189.716 155.187h-34.53v24.486c10.73.288 21.05 1.722 30.572 4.207 2.212-8.81 3.6-18.516 3.958-28.693z"/></g></svg>